<?xml version="1.0" standalone="no"?>
<!DOCTYPE svg PUBLIC "-//W3C//DTD SVG 20010904//EN"
 "http://www.w3.org/TR/2001/REC-SVG-20010904/DTD/svg10.dtd">
<svg version="1.0" xmlns="http://www.w3.org/2000/svg"
 width="300.000000pt" height="300.000000pt" viewBox="0 0 300.000000 300.000000"
 preserveAspectRatio="xMidYMid meet">
<metadata>
Created by potrace 1.11, written by Peter Selinger 2001-2013
</metadata>
<g transform="translate(0.000000,300.000000) scale(0.100000,-0.100000)"
fill="#000000" stroke="none">
<path d="M1457 2644 c-1 -1 -36 -4 -77 -7 -376 -29 -730 -263 -908 -600 -37
-70 -89 -202 -97 -247 -3 -18 -8 -36 -10 -40 -2 -3 -7 -29 -11 -56 -3 -27 -8
-58 -10 -69 -6 -29 -6 -239 0 -256 3 -8 7 -32 10 -54 15 -132 87 -313 182
-457 58 -88 195 -227 286 -291 69 -49 236 -137 260 -137 8 0 18 -4 23 -9 12
-10 172 -48 241 -56 99 -12 224 -8 345 11 71 11 214 60 300 103 320 160 552
467 613 811 3 19 9 46 12 60 3 14 5 81 5 150 1 129 -15 233 -51 345 -11 33
-20 63 -20 67 0 4 -23 50 -50 103 -100 193 -226 332 -406 448 -72 47 -195 107
-217 107 -7 0 -17 4 -22 9 -15 13 -170 48 -250 57 -72 7 -144 11 -148 8z"/>
</g>
</svg>
